HIERARCHY
ROOT Hips
{
	OFFSET 0.000000 0.000000 0.000000
	CHANNELS 6 Xposition Yposition Zposition Zrotation Yrotation Xrotation 
	JOINT LHipJoint
	{
		OFFSET 0.000000 0.000000 0.000000
		CHANNELS 3 Zrotation Yrotation Xrotation
		JOINT LeftUpLeg
		{
			OFFSET 1.363060 -1.794630 0.839290
			CHANNELS 3 Zrotation Yrotation Xrotation
			JOINT LeftLeg
			{
				OFFSET 2.448110 -6.726130 0.000000
				CHANNELS 3 Zrotation Yrotation Xrotation
				JOINT LeftFoot
				{
					OFFSET 2.562200 -7.039590 0.000000
					CHANNELS 3 Zrotation Yrotation Xrotation
					JOINT LeftToeBase
					{
						OFFSET 0.157640 -0.433110 2.322550
						CHANNELS 3 Zrotation Yrotation Xrotation
						End Site
						{
							OFFSET 0.000000 0.000000 0.000000
						}
					}
				}
			}
		}
	}
	JOINT RHipJoint
	{
		OFFSET 0.000000 0.000000 0.000000
		CHANNELS 3 Zrotation Yrotation Xrotation
		JOINT RightUpLeg
		{
			OFFSET -1.305520 -1.794630 0.839290
			CHANNELS 3 Zrotation Yrotation Xrotation
			JOINT RightLeg
			{
				OFFSET -2.542530 -6.985550 0.000000
				CHANNELS 3 Zrotation Yrotation Xrotation
				JOINT RightFoot
				{
					OFFSET -2.568260 -7.056230 0.000000
					CHANNELS 3 Zrotation Yrotation Xrotation
					JOINT RightToeBase
					{
						OFFSET -0.164730 -0.452590 2.363150
						CHANNELS 3 Zrotation Yrotation Xrotation
						End Site
						{
							OFFSET 0.000000 0.000000 0.000000
						}
					}
				}
			}
		}
	}
}
MOTION
Frames: 14
Frame Time: 0.008333
1.852413 17.064628 -1.945127 -24.368926 82.763171 -13.296740 -11.209763 5.139253 0.969526 -13.378824 7.876942 0.572084 -1.033014 1.877003 25.000894 0.195923 -5.639524 17.340867 -2.295401 -0.000000 -74.187501 7.576815 -1.210370 5.875973 13.331022 14.387638 -26.489914 4.252835 0.383819 6.521555 2.113355 13.801437 6.496152 2.783400 0.000000 -29.435900
2.023130 17.070447 -1.983242 -30.890810 82.844259 -19.976545 -11.437036 5.111946 0.842222 -12.297285 9.151272 -0.379811 -0.790226 1.939574 27.132534 0.327204 -5.668600 18.870046 -2.518199 0.000000 -73.320299 7.470950 -1.394658 5.885131 14.255288 14.072271 -25.680532 4.377734 0.382742 6.535568 2.121168 13.925742 6.161686 2.743200 -0.000001 -25.047400
2.191730 17.076888 -2.019411 -37.251022 82.920476 -26.472997 -11.679215 5.061888 0.708886 -11.262587 10.469673 -1.464386 -0.551335 1.984116 29.389512 0.481929 -5.397811 20.330802 -2.615100 0.000001 -71.726200 7.341034 -1.577516 5.907879 15.100410 13.756192 -24.864096 4.505691 0.405212 6.463931 2.127149 14.033849 5.681225 2.667500 -0.000000 -20.898001
2.357979 17.084104 -2.053910 -43.599799 82.986780 -32.933672 -11.925113 4.987967 0.569993 -10.282875 11.794891 -2.671182 -0.321947 2.013980 31.763420 0.658858 -4.720530 21.633254 -2.510700 0.000000 -69.414100 7.192411 -1.753301 5.948361 15.869427 13.462032 -24.034539 4.633779 0.453096 6.278680 2.127037 14.080329 5.107880 2.557100 0.000000 -17.122400
2.521683 17.092184 -2.086871 -50.020225 83.041359 -39.439909 -12.163536 4.889130 0.429077 -9.378179 13.076137 -3.981684 -0.107289 2.033740 34.234228 0.855327 -3.551038 22.680418 -2.136500 -0.000000 -66.364000 7.031679 -1.918654 6.006803 16.560044 13.194792 -23.191585 4.757496 0.525946 5.961639 2.117845 14.034649 4.504217 2.420400 -0.000000 -13.839201
2.682564 17.101193 -2.118236 -56.524277 83.087333 -46.005938 -12.383416 4.766967 0.291204 -8.578287 14.257728 -5.366842 0.087966 2.049461 36.768157 1.068321 -1.848854 23.381393 -1.454399 0.000000 -62.687800 6.869099 -2.071491 6.077250 17.162759 12.939635 -22.337385 4.870063 0.619469 5.510123 2.098511 13.884767 3.952467 2.274601 -0.000000 -11.577200
2.840489 17.111172 -2.148447 -63.227854 83.118368 -52.749796 -12.583379 4.621951 0.160392 -7.883274 15.301613 -6.807120 0.262063 2.066816 39.340846 1.293860 0.344705 23.643882 -0.484200 0.000000 -58.419900 6.705086 -2.211982 6.155830 17.687395 12.691989 -21.468321 4.970150 0.732668 4.919298 2.067857 13.618602 3.479600 2.125000 0.000000 -10.174400
2.995294 17.122038 -2.177631 -70.146523 83.129645 -59.691602 -12.761920 4.459039 0.042428 -7.301380 16.168471 -8.276375 0.413707 2.091936 41.915150 1.528091 2.928118 23.409131 0.698500 -0.000000 -53.719500 6.544106 -2.339505 6.233972 18.134869 12.433712 -20.583549 5.054824 0.861690 4.200157 2.026531 13.242250 3.120262 1.980400 0.000000 -9.682400
3.146837 17.133707 -2.205977 -77.280931 83.111084 -66.835616 -12.920515 4.284849 -0.056870 -6.831174 16.827976 -9.753663 0.543104 2.130021 44.454386 1.766261 5.742235 22.656434 1.968700 -0.000000 -48.781700 6.388786 -2.453044 6.303702 18.510592 12.151618 -19.682927 5.123072 1.003292 3.368295 1.975597 12.766641 2.886504 1.843799 0.000000 -9.970200
3.295001 17.146024 -2.233631 -84.582078 83.051312 -74.135262 -13.060539 4.107664 -0.131757 -6.468316 17.256675 -11.220558 0.651617 2.184772 46.921842 2.002748 8.603323 21.414058 3.182500 -0.000000 -43.852000 6.243318 -2.551071 6.356885 18.818357 11.833268 -18.769393 5.174261 1.153348 2.448292 1.916764 12.209684 2.780303 1.716200 -0.000000 -10.911200
3.439672 17.158822 -2.260662 -91.960274 82.938015 -81.503991 -13.182534 3.935937 -0.177547 -6.203929 17.441423 -12.661437 0.741600 2.257894 49.285312 2.230832 11.334633 19.750625 4.208600 0.000000 -39.149500 6.112818 -2.631874 6.385885 19.063716 11.467248 -17.847382 5.208810 1.307486 1.472442 1.852083 11.595305 2.784788 1.595800 0.000000 -12.303500
3.580824 17.171857 -2.287166 -99.300603 82.755738 -88.826169 -13.286710 3.775801 -0.191308 -6.022677 17.379437 -14.069758 0.816027 2.348794 51.520800 2.442638 13.789139 17.756833 4.952999 0.000000 -34.822600 6.001048 -2.694257 6.387674 19.254977 11.056948 -16.923705 5.227897 1.462180 0.467978 1.782686 10.937214 2.879690 1.478400 -0.000000 -13.979000
3.718368 17.184856 -2.313296 -106.452696 82.492466 -95.955293 -13.371085 3.631727 -0.172482 -5.907807 17.078541 -15.434210 0.877904 2.454883 53.606738 2.630062 15.865360 15.530975 5.370200 -0.000001 -30.933001 5.913215 -2.737703 6.356715 19.402351 10.594264 -16.005620 5.233562 1.613119 -0.524849 1.710424 10.263234 3.019730 1.360400 0.000000 -15.660800
3.852461 17.197543 -2.339270 -113.270144 82.131901 -102.737930 -13.435738 3.503082 -0.120993 -5.835583 16.553341 -16.762540 0.930071 2.571388 55.532494 2.785460 17.502942 13.164506 5.459400 0.000000 -27.498000 5.848509 -2.763512 6.300555 19.518145 10.110921 -15.100058 5.227456 1.759524 -1.500093 1.633655 9.558452 3.191743 1.236200 0.000000 -17.314800
